<svg id="Layer_1" data-name="Layer 1" xmlns="http://www.w3.org/2000/svg" viewBox="0 0 742.56 195.02"><defs><style>.cls-1{fill:#aa79b5;}.cls-2{fill:none;stroke:#aa79b5;stroke-miterlimit:22.93;stroke-width:0.22px;}.cls-3{fill:#ae7bb6;}.cls-4{fill:#b07eb7;}.cls-5{fill:#b785bb;}.cls-6{fill:#c08cbe;}.cls-7{fill:#be8abe;}.cls-8{fill:#ca93c2;}.cls-9{fill:#cf98c4;}.cls-10{fill:#cd95c3;}.cls-11{fill:#c590c1;}.cls-12{fill:#8b4f9f;}.cls-13{fill:#9457a3;}.cls-14{fill:#2b3b51;}</style></defs><path class="cls-1" d="M67.42,96.62c-.21-1.21.53-6.41.73-8.14.8-6.78-.41-8.37-2.48-14-1.32-3.6-.81-1.45-2.07-3.4-.43-.66.14-.14-.37-.56a.72.72,0,0,0-.76-.2c-.63.17-.24-.21-.44.44H61c-.21-.68.44-.36-.84-.5-2-.22-.8.65-2.9.14l-1.3-.06c-1.88.16.18.67-1.68.26-.76-.17.46-.17-.74-.31.65,2,1.67,4.84,1.41,7.54-.18,2-1.42,5.38-3.68,5.63-.88-.08-1.12.33-2.38.12-.79-.13-1.28-.57-2.06-.57-2.19-.34-3.38-3.16-4-5.47a20.93,20.93,0,0,1-.77-3.8c-.14-1.14-.19-2.84-.41-3.93a2,2,0,0,1-.32.7c-.69,1.08-.08-.51-.49.68-.33-.4-.34.61-.34-.93H36.37c0,1.54.05.48-.33.93v-.93H34.52c-.3.64.35.1-.33.29s.06-.17-1.32-.27l-.92,0-.15,0c-.61.14-.29-.25-.51.41h-1c-.21-.62-.12-.57-1.33-.52s-.9-.09-1.1.52h-1c-.21-.62-.13-.57-1.34-.52s-.89-.09-1.1.52l-3.23-.47c-.05,1.54.05.48-.33.93-.24-.68.08,0-.27-.42-1.15-1.27-3.14-.06-3.78,0,.05,3.19,1.38,7.23,1.19,8.54-.37,3.21,7.34,17.5,9.46,20.19.94,1.19,1.55,2.24,2.43,3.57,1.51,2.31,3.37,4.54,5,6.82,2.41,3.39,13,15.83,16.38,19.38,2,2.08,4,4.29,5.75,6s3.84,4,6,6.06c6.65,6.54,17.64,17.07,24.79,22.78,2.21,1.77,4.17,3.4,6.48,5.28,2,1.65,15.7,11.79,17.54,12.31,2.45.68,22.51-15.64,24.3-17.11,4.17-3.4,8.4-7.08,12.7-11.09,2.14-2,4-3.77,6.19-5.81,2.37-2.19,3.92-4,6-5.81l6-6c2-1.94,3.71-3.89,5.69-6.09,6.27-7,16.4-18.22,21.5-26,1.36-2.1,8.65-12.85,8.69-14.75s2.37-4.88,2.44-8.14h-1.91v1.39h-.86c.3-.68.67-.22.69-1.39h-4.22c0,1.55.09.59.29.93.76,1.26-.12-.76.41.46h-.86V80.79H183.44c-.65,0-1.78-.07-2.37,0-1.27.11-.56,0-.87.31l-.38.56a4,4,0,0,1-2.91,1.62c-2.56,0-3.7,1-5.4-1.41-4-5.78,0-10.13,1.74-15.62l1.53-5.64a10.5,10.5,0,0,0,.42-3.09c.06-5,.12-7.26-2.87-11.09-2-2.63-1.78-.52-2.21,2.33-.31,2.13-2.56,7-3.46,9l-.93,1.89c-.52,1-.72,1.56-1.27,2.45l-4,7.54a75.25,75.25,0,0,0-3.54,7.82c-3.7,9.7.79,21.2.94,27.16.1,4.08-11.93,13.5-14.73,15.82-3,2.51-5.77,4.23-8.8,6.46-4.69,3.46-14.05,8.79-19.75,10.69-4.09,1.35-8.5-1.42-11.4-2.82-5.3-2.55-7.61-4.29-12.09-7.08l-10.85-8.12c-.75-.67-1.51-1.06-2.22-1.71-4.4-4-5.15-4.19-9.65-9.28-2.49-2.8-2.08-3.45-1.75-5.27.28-1.53,1.11-5.44.8-6.69"/><path class="cls-1" d="M176.91,83.26a4,4,0,0,0,2.91-1.62l.38-.56c.31-.28-.4-.2.87-.31.59,0,1.72,0,2.37,0h15.24v1.38h.86c-.53-1.22.35.8-.41-.46-.2-.34-.25.62-.29-.92h4.22c0,1.16-.39.7-.69,1.38h.86V80.8h1.91c-.07,3.25-2.45,6.31-2.44,8.13.37-.27.12,0,.41-.38a60.57,60.57,0,0,0,3-7.45,44.73,44.73,0,0,0-2-28.87c-1.18-2.77-2.31-4.87-3.46-7.68-.5-1.23-1.23-2.28-1.83-3.63a16.52,16.52,0,0,0-.95-1.83c-1.58-2.67-3-7.8-3.88-10a5.22,5.22,0,0,1-.64-2.05c-.13-.71-.34-1.41-.52-2.28a47.55,47.55,0,0,1-.61-5.23c-.35,0-.52-.19-.9.36l-.92,1.61a10.48,10.48,0,0,0-.68,3.88c-.11,4.87.69,7,2.32,10.93.59,1.44,3.49,8.58,3.56,9.62-.85-.73-2.68-5.7-3.39-7.21-2-4.32-5.35-14.21-6-19.12a4,4,0,0,0-.11-.62c-.22-.88,0,0-.17-.51a13,13,0,0,1-.2-2.56,3.88,3.88,0,0,0-.61-2.41l-1.66,3.91-.06.18c-1.33,4.3-.36,11.73.73,15.77,1.27,4.76,5.16,14.85,5.2,18.48l-3-7.58a100.47,100.47,0,0,1-4.48-15.78c-.51-3.45-.24-6.43-.5-9.9-1,0-1.27,1.47-1.86,2.69-3.94,8.13-3.71,11.27-1.87,21,.54,2.84,1.45,5.47,1.81,8.3L181,58.93c.76,5.6,2,16.94-1.38,21.75-.9,1.26-2.25,1.9-2.67,2.58"/><path class="cls-2" d="M177,83.14a3.92,3.92,0,0,0,2.9-1.62l.37-.55c.32-.28-.4-.2.87-.31.59,0,1.71,0,2.36,0h15.17v1.38h.85c-.52-1.21.35.8-.4-.45-.21-.34-.25.61-.29-.93H203c0,1.17-.39.7-.69,1.38h.86V80.68h1.9c-.07,3.25-2.44,6.3-2.43,8.11.37-.27.12,0,.41-.37A61.53,61.53,0,0,0,206,81a44.63,44.63,0,0,0-1.95-28.77c-1.17-2.76-2.29-4.86-3.44-7.65-.5-1.22-1.22-2.28-1.82-3.62a17.19,17.19,0,0,0-.95-1.82c-1.57-2.66-3-7.78-3.86-9.93a5.22,5.22,0,0,1-.64-2.05c-.13-.71-.33-1.4-.51-2.27a47.19,47.19,0,0,1-.61-5.21c-.35,0-.52-.19-.9.35l-.91,1.61a10.38,10.38,0,0,0-.68,3.87c-.11,4.85.69,6.94,2.31,10.89.59,1.43,3.48,8.55,3.54,9.59-.85-.73-2.66-5.68-3.37-7.19-2-4.3-5.32-14.16-6-19a3.32,3.32,0,0,0-.11-.63c-.21-.86,0,0-.17-.49a13.81,13.81,0,0,1-.19-2.56,3.92,3.92,0,0,0-.61-2.4l-1.65,3.9-.06.18c-1.33,4.28-.35,11.68.73,15.71,1.26,4.74,5.13,14.79,5.17,18.42l-2.94-7.56A101.15,101.15,0,0,1,182,28.59c-.5-3.45-.23-6.41-.49-9.87-1,0-1.27,1.46-1.86,2.69-3.92,8.09-3.69,11.22-1.85,20.9.54,2.82,1.44,5.44,1.8,8.27L181,58.9c.74,5.58,2,16.87-1.39,21.68C178.74,81.83,177.4,82.46,177,83.14Z"/><path class="cls-1" d="M17.94,79.27c.19-1.32-1.14-5.36-1.19-8.55.64,0,2.63-1.23,3.78,0,.35.39,0-.26.27.42.38-.45.28.62.33-.92l3.23.46c.21-.61-.22-.47,1.1-.52s1.13-.1,1.34.52h1c.2-.61-.23-.47,1.1-.52s1.12-.1,1.33.52h1c.22-.65-.1-.27.51-.41l.15,0,.92,0c1.38.1.66.46,1.32.28s0,.34.33-.29H36v.92c.38-.45.28.62.33-.92h4.05c0,1.53,0,.52.34.92.41-1.19-.2.4.49-.67a2,2,0,0,0,.32-.71c.22,1.09.27,2.8.41,3.92a20.86,20.86,0,0,0,.77,3.81c.65,2.31,1.84,5.13,4,5.47-.45-.89-1.53-1.47-2.32-2.73-6-9.67,2.81-36.77,3.36-46.32a18,18,0,0,0-1.4-8.46c-.52-1.4-2.11-5.93-3.45-6.63,0,6.57-.42,11.56-2.23,17.51-.2.66-.65,1.17-.87,2A79.86,79.86,0,0,1,37,46.85L34.87,53c-.14.43-.18.7-.32,1.09-.06.16-.15.37-.21.49l-.3.49a1.16,1.16,0,0,1-.11.16c0-2.47,1.92-8.05,2.7-10.33.53-1.58,1.07-3.22,1.6-4.86l2.13-7.88c.2-1,.57-1.7.7-2.42.79-4.27,1-10.48-.75-14.36-.56-1.24-.65-1.72-1.71-1.82-.05,6.78-1.52,10.4-3.12,16.37l-7.36,17s.21-.68.28-.84c1-2.2,5.09-12.91,5.53-14.85C35.06,26.31,35,24.55,32.71,20c-.73.75-1.05,2.76-1.22,3.8a46.74,46.74,0,0,1-3.64,11.12c-1.06,2.11-1.75,4.5-3,6.69a134.42,134.42,0,0,0-6.46,13.17A25.11,25.11,0,0,0,16,62.34a41.19,41.19,0,0,0,1.32,16Z"/><path class="cls-2" d="M18,79.18c.19-1.31-1.13-5.34-1.18-8.53.63,0,2.61-1.22,3.76,0,.35.38,0-.26.27.42.38-.45.28.61.33-.93l3.22.46c.2-.6-.23-.46,1.09-.51s1.12-.1,1.33.51h1c.2-.6-.23-.46,1.09-.51s1.12-.1,1.33.51h1c.22-.65-.1-.26.51-.4l.14,0,.92,0c1.38.11.66.47,1.32.28s0,.35.33-.29H36v.93c.38-.45.28.61.33-.93h4c0,1.53,0,.53.33.93.41-1.19-.2.4.49-.68a1.82,1.82,0,0,0,.31-.7c.23,1.09.28,2.79.42,3.91a20,20,0,0,0,.77,3.8c.64,2.3,1.83,5.11,4,5.46-.45-.89-1.52-1.47-2.3-2.72-6-9.65,2.79-36.69,3.34-46.21a18,18,0,0,0-1.4-8.45c-.52-1.38-2.1-5.9-3.43-6.6,0,6.55-.42,11.53-2.22,17.46-.2.66-.64,1.17-.86,2A82.58,82.58,0,0,1,37,46.85L34.85,53c-.13.43-.17.7-.31,1.09-.06.16-.15.37-.21.49l-.3.48a1.2,1.2,0,0,1-.11.17c0-2.47,1.91-8,2.69-10.31.53-1.58,1.06-3.21,1.6-4.85l2.11-7.86c.2-1,.57-1.7.7-2.41.79-4.26,1-10.46-.75-14.33-.56-1.23-.65-1.71-1.7-1.81,0,6.76-1.51,10.38-3.11,16.33l-7.32,17s.21-.67.28-.83c.94-2.2,5.06-12.88,5.5-14.81C35,26.35,35,24.6,32.71,20.08c-.73.74-1.05,2.75-1.22,3.78A47,47,0,0,1,27.87,35c-1.06,2.11-1.74,4.49-3,6.67a131.31,131.31,0,0,0-6.42,13.14A24.89,24.89,0,0,0,16.1,62.3a41.3,41.3,0,0,0,1.31,15.9Z"/><path class="cls-3" d="M110.67,133.37l.18-14.22c0-2.69.7-21.46,1.09-23,.06,0,.14,0,.17.14.11.44.52-.27.61,2.07,0,1,.1,2,.2,2.83l.7,32.06c.84,0,1-.85,2.07-2.62,1.55-2.67,4.14-5.76,5.91-9.31,6.5-13,5.76-18.7-1.34-30.71l-7.45-11.69c-.51-.76,0-.35-.75-.76-.73.47-1.41,2.37-2,3.23-2.85,4.4-7.77,11.62-9.47,15.92A33.22,33.22,0,0,0,99.19,101C97,108.3,99,114.85,102.55,121L110,132.8c.55.7,0,.39.72.57"/><path class="cls-4" d="M128.45,121.52c.05,0,.12-.15.14-.11l1-1.41c.32-.6.7-1.17,1-1.75,2.14-4.28,7-12.63,9.64-16.92,1.34-2.16,3.05-4.67,4.1-6.76.22.26.93-.28-.2,1.87-1.46,2.77-4.37,9.91-5.77,12.28L133,118.79a13.79,13.79,0,0,0-1.7,4,14,14,0,0,0,2.95-1.33l7.72-4.51c8.93-5.52,11-11.29,10.91-21.33,0-4.22-.68-7.22-.76-11.54-.1-4.94.17-2.68-5.71.33-.88.46-1.78.8-2.67,1.33-4.36,2.59-8.37,4.73-11.76,8.53-3,3.34-3.89,6.48-4.4,11.79-.22,2.3.17,14.14.9,15.48"/><path class="cls-4" d="M93,123c0-1-1.1-2.55-1.73-3.62-1.76-3-4.41-8.6-5.93-11.39L79.06,94.44a9.11,9.11,0,0,1-.84-2c.83.39,11.5,18.67,13.23,21.92L94.54,120c.34.66.43,1.56,1.12,1.77.65-.83,1-13.16.88-15.33C96,91.64,84.56,88.79,74.85,82.7c-1-.62-1.54-1.39-2.7-1.39-.41,16.32-4.84,26.63,10.56,36,1.3.79,9.42,5.57,10.33,5.68"/><path class="cls-5" d="M97,96c-.12-2.61-.86-5-1.17-7.36L94.2,77.36c-.18-1.18-.19-2.65-.4-3.78a36.32,36.32,0,0,1-.71-7.8c.81.84,1.62,6.19,1.87,7.29l3.15,14.68a71.39,71.39,0,0,0,1.34,7.74c.49-.31.29-.09.64-.53s.15-.23.31-.61L102.28,90c1.72-4.29,3.43-7.75,3.66-12.61s0-3.84-1-7.4c-.85-3.1-4.74-7.91-6.54-9.92-1.22-1.36-2.66-2.95-3.88-4.2-.84-.87-3.08-4-4-4.27l-2.17,5.91c-.33.93-1.76,3.32-2.52,5.45-1.33,3.74-3.11,9.05-2.46,13.7,1,7.18,7.92,13.48,12.16,18.35,1,1.09.73.78,1.36,1"/><path class="cls-5" d="M124.53,95.73c1-.3.64-1.34,1-3.32.47-3,4.32-24.59,5.84-26.25,0,4.86-1,10.73-1.61,15.35-.5,4.19-2.13,10.55-2.3,14.44,1.34-.37,3.24-3.1,4.22-4.1,1.24-1.27,2.56-2.8,3.76-4.31,2.15-2.69,4.85-6.56,5.47-10.77,1.1-7.42-2.36-13.14-4.74-19.35L134,51.64c-1.3,0-1.17.89-2,1.8-.63.7-1.32,1.42-1.94,2.22a16,16,0,0,1-2,2.14c-3.26,3.16-6.94,7.79-8.68,12.1-2,5-1.12,9,.42,14Z"/><path class="cls-6" d="M78.08,78.77C78,77,71.33,58.59,71.33,54.19l2.51,5.74C74.59,62,75.33,64,76.11,66s1.38,4.08,2,6c.55,1.51,1.39,5.15,2,6.22.87-.3,1.52-4.26,1.76-5.22,1.27-5.12,2.18-7.27,1.66-12.9C83.07,54.13,77,48.89,72.74,45.55l-4-3.41c-1-1-1-1.43-2-1.32-.48,5.36-5.61,17.23-2.54,23.67,2.4,5,5.66,8,9.74,11.27.85.66,3.25,2.85,4.13,3"/><path class="cls-7" d="M144.15,78.09s.1-.16.12-.13l1.25-3.19c.44-1.28.74-2.36,1.09-3.59.64-2.25,1.76-4.45,2.49-6.59s1.52-4.67,2.41-7l2.67-6.73c.32,2.34-7.52,26.52-7.64,27.73,1-.2.47,0,1.3-.61,4.51-3.55,10.56-8.41,12.59-13.71.88-2.33.91-3.11.83-6.12a44.2,44.2,0,0,0-2.37-11.47,43.57,43.57,0,0,1-1.11-5.92c-.86,0-.89.18-1.52.86a38.82,38.82,0,0,1-4.3,3.79c-3.13,2.78-6,4.45-8.94,9.07-2.14,3.37-2.57,7.26-1.83,12A88.52,88.52,0,0,0,144,77.74Z"/><path class="cls-7" d="M111.33,76l.61-22.8c1.28,1.87,1.15,18.21,1.16,22.7l2.65-3.61c5.44-8.3,7.06-12.69,1.2-22.17-.61-1-4.34-7.07-4.89-7.5l-7,11.36a28,28,0,0,0-1.34,4.93,16.39,16.39,0,0,0,2.5,9.72c.56,1,4,7.08,5.06,7.37"/><path class="cls-8" d="M73.89,39.26a10.36,10.36,0,0,0,1.25,5.54c2.68,4.38,4.55,5.74,8.1,9,.86.79,1,1.26,2.16,1.57L81.74,40.26a27.7,27.7,0,0,1-.91-5.44s.08.07.1.17L85.72,49.9c.44,1.61.84,3.73,1.4,5.13,1.19-.3,3.69-11.48,3.69-13.23,0-4.73-1.72-7.94-5-11.11-1.32-1.26-2.64-2.55-4-3.65s-3.08-3.33-4.18-3.5l-2.25,7.39a24.85,24.85,0,0,0-1.48,8.33"/><path class="cls-8" d="M136.94,55c.8-.7.89-2.73,1.58-4.73l2.88-9.53c.33-1.12,1.14-4,1.91-4.8-.1,4.46-4.28,17.57-4.3,19.55,1.38-.58,6.23-5.45,7.2-6.55,2.35-2.67,4.36-5,4.33-9.9a24.18,24.18,0,0,0-1.52-8.1l-2.32-7.38c-1,.13-1.14.63-1.75,1.27s-.95.94-1.54,1.46c-1.08.95-2.17,1.91-3.17,2.84a24.53,24.53,0,0,0-5.37,6.62c-2.62,4.74-1.08,10,.55,14.81A35.82,35.82,0,0,0,136.94,55"/><path class="cls-9" d="M158.12,34.18A33.6,33.6,0,0,0,160,43.93l1,3,6.63-18c.7.85-.35,4-.66,4.94-.68,2.13-4.12,13-4.1,13.83,1.31-.39,7.7-6.08,9.21-8.05,6.62-8.69,1-14.62.12-23.21-.91-.05-.79,0-1.43.66l-.23.24-5,4.07a33,33,0,0,0-5.77,6.44,11,11,0,0,0-1.71,6.26"/><path class="cls-10" d="M61.38,47.71c0-1.26-2.31-7.12-2.85-9.12-.37-1.39-.8-3.3-1.27-4.81a18.08,18.08,0,0,1-1.19-5.25c1,.84,1.3,2.67,2,4.52s1.21,3,1.78,4.67c.83,2.36,2.28,7.92,3.29,9.38C63.75,46.58,68.05,34,64.41,28a25.7,25.7,0,0,0-7.12-7.42l-2.39-2c-1-.85-.15-.38-1.62-1.36-.6-.4-.29-.39-1-.64L51,21.17c-3,9.41-3.2,14.95,3.84,21.48A32.87,32.87,0,0,0,58,45.28c1,.75,2.41,2.36,3.36,2.43"/><path class="cls-1" d="M51.22,83.45c2.26-.25,3.5-3.65,3.68-5.63.26-2.7-.76-5.55-1.41-7.54,1.2.14,0,.14.74.31,1.86.41-.2-.1,1.68-.26l1.3.06c2.1.51.89-.36,2.9-.14,1.28.14.63-.18.83.5H62c.2-.65-.19-.27.44-.44a.72.72,0,0,1,.76.2c.51.42-.06-.1.37.56,1.26,2,.75-.2,2.07,3.4,2.07,5.64,3.28,7.23,2.48,14-.2,1.73-.94,6.93-.73,8.14.82-.93,1.11-6.21,1.26-7.35,1-7.63-1.44-14-5.07-20.27-1.11-1.92-1.85-3.6-3-5.53a66.25,66.25,0,0,1-6.47-14.73c-.25-.93-.38-2.82-.72-3.61-2,.25-4.24,5.66-4.59,8.21C48.16,58.24,50,65,51.93,69.15a27.17,27.17,0,0,1,2,4.46A11.3,11.3,0,0,1,54,79.33c-.85,2.9-2.08,2.86-2.79,4.12"/><path class="cls-2" d="M51.28,83.35c2.24-.25,3.47-3.63,3.65-5.6.25-2.69-.75-5.53-1.4-7.5,1.19.13,0,.13.73.3,1.85.41-.19-.1,1.67-.26l1.29.06c2.09.51.89-.36,2.88-.14,1.27.14.63-.18.83.5H62c.19-.65-.19-.27.43-.44a.72.72,0,0,1,.76.2c.5.42-.06-.1.36.56,1.26,1.93.75-.2,2.06,3.38,2,5.61,3.26,7.2,2.47,14-.21,1.72-.94,6.89-.73,8.1.81-.92,1.1-6.18,1.25-7.32,1-7.59-1.43-13.89-5-20.18-1.09-1.9-1.83-3.57-3-5.5A66,66,0,0,1,54.16,48.8c-.24-.93-.38-2.81-.71-3.6-2,.26-4.21,5.64-4.55,8.18C48.24,58.26,50.09,65,52,69.11a26.58,26.58,0,0,1,1.94,4.45A11.18,11.18,0,0,1,54,79.25C53.2,82.13,52,82.1,51.28,83.35Z"/><path class="cls-11" d="M100.33,59.17c0-2.62-3.33-12.57-3.31-16.26l.2.31a13.16,13.16,0,0,1,1.25,3.59c.44,1.45.67,2.78,1.11,4.31s.74,1.86,1.26,4c.32,1.36.27,3.43,1.29,3.85a55.94,55.94,0,0,0,2.32-7.25c1.75-8.43-1.83-10.88-7.3-16-.69-.64-1.8-2.07-2.55-2.34l-2.39,7c-.62,2-1.31,6-.72,8.47.76,3.19,7.57,10,8.84,10.32"/><path class="cls-11" d="M122.22,59c.77-.19,1.06-2.32,1.42-4,1-4.45,2.52-8.29,3.1-10.82.19-.83.53-1.38.68-2,.14,2.15-.81,6.18-1.4,8.34-.7,2.53-1.81,5.8-1.91,8.55,1.42-.44,4.7-4.11,5.76-5.19a11.16,11.16,0,0,0,3.22-7.65,22.22,22.22,0,0,0-1.33-6.82c-.32-1-1.54-5.37-1.92-6-.52.14-4.46,3.89-5.09,4.49-5,4.72-5.89,7.67-4.83,13.59a44.54,44.54,0,0,0,2.3,7.52"/><path class="cls-9" d="M151.31,34.14c.82-.33.52-.57.94-2.27.24-.92.52-1.72.77-2.65a21.28,21.28,0,0,1,1.59-4.7l.22-.33a22.8,22.8,0,0,1-1.1,5.46c-.35,1.19-1.41,4.07-1,4.92,1.27-.59,6.13-5.21,7.06-8.26.72-2.35.18-4-.3-6.4L157.78,14c-.83,0-.17-.13-.71.12l-.4.28a.58.58,0,0,0-.12.1,44.58,44.58,0,0,0-6.51,7.1,9.69,9.69,0,0,0-.65,6.65,33.25,33.25,0,0,0,1.92,5.9"/><path class="cls-9" d="M71.49,34.27c-.16-2.39-2.73-10-2.59-12.09,1.44,2,2.7,10.52,3.9,11.82A7.14,7.14,0,0,0,74,31.28a25.14,25.14,0,0,0,.8-3.12c1-6.53-1.63-8.55-6.34-12.72-.8-.71-1-1.58-2.19-1.42-.24,5.82-5.83,9.22.92,16.77a8.7,8.7,0,0,0,1.92,1.76c.79.59,1.14,1.54,2.37,1.72"/><path class="cls-12" d="M619.21,92.51c-2.12-5.82-2.28-6.94,1.35-11.83,1.68-2.24,5.08-6.25,8.23-6.74,6.85-1.06,10.73,10.15,1.42,18.55,1.09,7.8.84,7-4.21,13.22-2.77,3.43-5.64,7.55-11.32,6.85-2.13-3.41-2.73-7.67-1.67-12.52.81-3.76,3.84-5.48,6.2-7.53m-299.36.91c.51-7.07-2.13-6.14,2.27-12.5,5.14-7.44,14.54-12,14.9,1.32.21,7.76-1.72,5.81-5.28,10.25,1.65,7,1.4,6.32-3.37,12.32-3,3.74-6.08,8.06-11.42,8-3-3.41-3.19-4.53-2.62-11,.43-4.8,2.33-5.6,5.52-8.31m-18.66-3.27c-1.09,6.08.59,3.93.52,8.78,0,3-3.66,15.91,5.35,22.11,11.18,7.69,18.57-5.21,23.85-10.12l1.79,3.13c4.34,10.72,2.74,3.92,6.06,9.49,10.27-1.34,9.12.14,15.8-7.44,1.67-1.9,8.33-12.36,9.15-12.79,2.27,25.54,29.06,25,40.7,8.38.82,1.86-.63,4-1.89,5.86-2.16,3.22-2.81,2.33-3.76,5.63,6.43.49,5.69-1.2,9.47-1.32s2.34,1.62,8.45,1.36c.47-8.71,3.77-16.6,7.19-24.32,2.86-6.45,4.06-2,4.28-9.4.12-4,9-12.11,13.33-11.83,7.06.45.54,11.51-2.68,13.89-.8,9.72-1.44,8.16-4.07,15.65-1.82,5.2-3.38,11.11,1.68,14.67,11,7.73,21.34-8.58,24.75-11.85l.76,1.24c1,2.09,0-.29.6,1.31a17.18,17.18,0,0,1,.6,2.13c4.61,16,19.31,6.91,25.37-3.24,2.28,1.58,2.29,2.52,3.41,5.24,2.29,5.57,6.73,6.86,12.53,6.07,6-.81,3.82,1.47,10.72-.41,6.57-1.79,3.62,1.1,10.21.78,1.74-2.74.37-.41,1-3.55,4.64-21.76,10.42-21.84,12.84-28,1.09-2.78,1.14-2.63,3.16-5.34,2.8-3.73,4.9-7.41,10.81-6.76,1.29,9.33-2.76,9.52-4.89,13.62-1,1.87-1.07,5.32-2,7.33-1.09,2.46-2,3.83-3.05,6.26-10.09,22.82,19.2,18.94,16.3,8.4-1.32-4.81-3.62.2-3-5.42.22-1.88,4.6-11.08,6-12.55,7.18-7.66.43-4,6.78-11.73,2.78-3.41,4.84-6.83,10.24-6.27,2,8-1.68,10.88-5.84,14.27,1.85,6.48-1.93,9.94-3.73,15-6,17.17,12.28,23.43,27.37.28,1.4,1.39.54.32,1.61,2.05,1.7,2.72,2.14,6.17,4.44,8.69,12.11,13.27,23.84-8.44,27-9.61,2.34,5.3-.4,10.1,7.19,12.79,13.05,4.61,27.67-23.56,28.1-30-8.78.09-9.71,22.14-20.94,19.92C642.11,103,647,96.38,652,92.66c-3.69-11.76,9-23.34,10.25-29-8.12-.31-9.62,4.17-19.29,5.12a25.22,25.22,0,0,0-1,2.36c-.81,1.57-.37,1-1.17,1.87-6.4-9-17.81-7.22-25.84-.77-7.77,6.24-9.38,14.38-15.95,19.32-.41,9.3-.27,7.4-4.83,13.76-2.57,3.61-4.65,8-9.74,7.26-1-10,5.06-14.56,9.44-19.16-3.33-8.08,5.79-22.76-7.22-24.72-14-2.11-14.24,9.16-19.63,13-.57-5.47.74-6.25-2.26-9.92-6.6-8.06-16.85,1-21.57,6.69.67-6.25,4.75-8,5.77-13-5.13-.29-5.35.23-9.52,1.93-4,1.63-5,1.18-9.84,1.56.1,8.48-3.87,19.49-10.53,23.72,2,8.27-7,20.71-13.85,20.11-2.28-10.21.65-14.66,6.85-19.3-1.07-4.68-2.65-1.84-.55-7.16L518,72c1.73-3.5,2.71-3.2,4-6.67-5.87-.12-10.71,3.37-18.72,4.19-2,7.71-4,18.66-11.83,22.58,1.25,7.91.39,5.45-4.07,12.58-2.32,3.69-4.91,8.34-10.22,8.07-1.86-4.43-1.44-6.52.24-11.52,2.07-6.17,3.12-4,6.2-7.82-1.42-8.58,2.66-14.38,6.79-21.83,1.93-3.49,2.78-3.32,4-5.88-5.65-1.09-12.6,3.25-20.27,4.39.18,14.2-9.06,17.77-10.47,24.27-1.31,6-7.77,18.29-14.48,18.39C448,104,452.49,98,457.58,93.42c-.48-6.16.74-20.59-2.95-24.09-7-6.65-13.67,0-19.9,3,.42-5.67,4.49-14.39,6.51-19.61l8.22-16.49c-6.12-.31-6.65.48-10.64,3.1-4.65,3.07-4.28,1.76-9.39,3.8-1.07,11.37-5.58,18.12-8.52,28.88-2.65,9.68-3.73,12-9.22,18.39-3.29,3.82-.46,1.93-2.45,6.93C406.81,103.46,395,113,387.65,113.1c-9.51.09-17.93-9.19-6-19.68-.87-4.78-3.5-.79-.92-6.68,2.74-6.28,10.22-10.2,17.3-9.27,1.09,3.85.69,7.72-1.71,9.86-3.76,3.35-4.6-.6-7.95-1.57-1.7,4.81-2.72,3.56-1.84,10.45,3.45,7.06,16.32-.4,17.78-4.85l2.39-8.49C411.8,60,387.35,63.68,373.5,78.34c-4.64,4.92-5.37,10.16-11.35,13.22-1.14,8.5-1.48,7.84-5.6,13.54-2.43,3.34-4.22,7.86-9.62,7.61-3.16-7.78.86-16.45,6.65-19.78-3.36-11.2,9.18-23.44,10.21-29.41-9.21-.13-8.83,4.6-18,5.2l-.88,1.58c-.1.22-.25.51-.35.73l-.63,2.35c-3.59-1-5-5.84-12.09-6.42-14.94-1.2-20.9,11.6-26.5,19.55Z"/><path class="cls-12" d="M293.75,88.77c-3.34-.29-4.24-3.1-6.43-5.77-5.81-7.09-14.08-13-19.54-19.48-11.87-14.12,1.5-29.84,15.29-21.87,2.11,9.9-2.26,21.2,5,26.52,1.48-2.48,1.05-5,3.11-8,4.31-6.33,14.48-8.16,16.68-15.55-1.81,0-11.46,2.45-14-6.48-8.16-2.72-11.27-8.1-25.94-4.12-16.7,4.52-22.42,22.46-10.2,39.58,7.73,10.84,13.61,10.79,11.13,19.81,2.82,1.75,6.51,2.47,8.35,6.23,4.61,9.44-3.38,24.64-21.54,21.7-19.09-3.08-18.19-29,5.13-28.16,1.1-13.5-19.92-12.45-26.12.76-13.83,29.45,24.73,46.1,46.59,30.82,8.06-5.64,11.52-12.51,12.34-22.06.6-6.9.87-4.63,2.63-10.22l-1.14-1.36c-1.67-2.57,1.17,2.84-1.35-2.36"/><path class="cls-12" d="M710,91.56c-5.58-2.24-12.46-3.09-13.36-9.44-1.13-8,9.51-12.25,10-4.52-4,2.64-2.47-.94-6.35,1.86,0,3.64,1,4.06,2.35,5.92,16.4,1.92,14.71-22.17-4-17.95-6.3,1.41-9.74,5.57-11.8,10.54-1.35,3.28-5.23,13.77-5.39,16.5,6.52-.81.31-1.48,5.8-2.59,4.68,4.94,14.68,10.1,12.52,17.9s-18.8,6.12-16.24-2.88c2.48.57,2.83,1.53,3.48,1.77,8.84,3.23,8-12.74-1.88-8.18-9.59,4.44-7.5,29,14.69,24.1,12.11-2.65,23.85-28.61,24.31-31.83-4.87-.44-4.29,2.29-10.22,11.47-3.74-3.77-3.65-8.08-3.91-12.67"/><path class="cls-13" d="M674.89,66.18c1.34-4.41,1.53-19.12,1.13-25.09l-8.06.52c-.05,7.9-.74,17.43.43,25.23Z"/><path class="cls-14" d="M236.84,141.8h2.87v20.09h-2.87Z"/><path class="cls-14" d="M263,141.8v20.09h-2.36l-12.05-15v15h-2.87V141.8h2.35l12.06,15v-15Z"/><path class="cls-14" d="M270.52,161.42a9.09,9.09,0,0,1-3.31-1.82l1.06-2.24a8.76,8.76,0,0,0,2.94,1.68,10.86,10.86,0,0,0,3.69.64,6.66,6.66,0,0,0,3.73-.84,2.61,2.61,0,0,0,1.24-2.26,2.22,2.22,0,0,0-.68-1.68,4.51,4.51,0,0,0-1.66-1c-.66-.23-1.59-.48-2.8-.77a30.82,30.82,0,0,1-3.66-1.09,6.16,6.16,0,0,1-2.38-1.68,4.5,4.5,0,0,1-1-3.06,5.21,5.21,0,0,1,.84-2.9,5.88,5.88,0,0,1,2.57-2.07,10.57,10.57,0,0,1,4.28-.77,13.35,13.35,0,0,1,3.5.46,9.24,9.24,0,0,1,3,1.32l-1,2.3a10.55,10.55,0,0,0-5.51-1.64,6.21,6.21,0,0,0-3.66.89,2.73,2.73,0,0,0-1.22,2.3,2.21,2.21,0,0,0,.69,1.68,4.8,4.8,0,0,0,1.71,1,26.9,26.9,0,0,0,2.77.76,28.11,28.11,0,0,1,3.64,1.09,6.17,6.17,0,0,1,2.37,1.67,4.37,4.37,0,0,1,1,3,5.18,5.18,0,0,1-.86,2.89,5.73,5.73,0,0,1-2.61,2.06,10.8,10.8,0,0,1-4.31.76A13.76,13.76,0,0,1,270.52,161.42Z"/><path class="cls-14" d="M300.85,143.66a7,7,0,0,1,0,10.28,9.27,9.27,0,0,1-6.14,1.87h-5v6.08h-2.87V141.8h7.84A9.32,9.32,0,0,1,300.85,143.66Zm-2.06,8.49a4.63,4.63,0,0,0,0-6.69,6.47,6.47,0,0,0-4.17-1.16h-4.88v9h4.88A6.53,6.53,0,0,0,298.79,152.15Z"/><path class="cls-14" d="M307.6,141.8h2.87v20.09H307.6Z"/><path class="cls-14" d="M329.93,161.89l-4.33-6.17c-.54,0-1,.06-1.27.06h-5v6.11H316.5V141.8h7.83a9.35,9.35,0,0,1,6.15,1.86,6.35,6.35,0,0,1,2.24,5.14,6.81,6.81,0,0,1-1.15,4,6.54,6.54,0,0,1-3.27,2.38l4.76,6.74Zm-1.52-9.73a4.62,4.62,0,0,0,0-6.7,6.44,6.44,0,0,0-4.16-1.16h-4.88v9h4.88A6.39,6.39,0,0,0,328.41,152.16Z"/><path class="cls-14" d="M350.2,156.87H339.52l-2.21,5h-3l9.1-20.09h2.85l9.12,20.09h-3Zm-1-2.3-4.33-9.84-4.33,9.84Z"/><path class="cls-14" d="M362.4,144.3h-6.89v-2.5h16.62v2.5h-6.89v17.59H362.4Z"/><path class="cls-14" d="M371.5,141.8h2.87v20.09H371.5Z"/><path class="cls-14" d="M384,160.79a9.85,9.85,0,0,1-3.83-3.69,10.63,10.63,0,0,1,0-10.51A9.85,9.85,0,0,1,384,142.9a11.91,11.91,0,0,1,10.94,0,9.87,9.87,0,0,1,3.82,3.68,10.8,10.8,0,0,1,0,10.53,9.87,9.87,0,0,1-3.82,3.68,11.91,11.91,0,0,1-10.94,0Zm9.46-2.23a7.32,7.32,0,0,0,2.78-2.77,8.14,8.14,0,0,0,0-7.89,7.32,7.32,0,0,0-2.78-2.77,7.9,7.9,0,0,0-4-1,8,8,0,0,0-4,1,7.29,7.29,0,0,0-2.82,2.77,8.21,8.21,0,0,0,0,7.89,7.29,7.29,0,0,0,2.82,2.77,8,8,0,0,0,4,1A7.9,7.9,0,0,0,393.45,158.56Z"/><path class="cls-14" d="M421.8,141.8v20.09h-2.36l-12.05-15v15h-2.87V141.8h2.35l12.06,15v-15Z"/><path class="cls-14" d="M440.63,156.87H430l-2.21,5h-3l9.1-20.09h2.84l9.13,20.09h-3Zm-1-2.3-4.33-9.84L431,154.57Z"/><path class="cls-14" d="M448.84,141.8h2.87v17.6h10.88v2.49H448.84Z"/><path class="cls-14" d="M488.2,159.4v2.49H473.61V141.8h14.18v2.5H476.48v6.17h10.08v2.44H476.48v6.49Z"/><path class="cls-14" d="M510.3,141.8l-8.81,20.09h-2.84L489.8,141.8h3.1l7.24,16.51,7.29-16.51Z"/><path class="cls-14" d="M527.87,159.4v2.49H513.28V141.8h14.19v2.5H516.15v6.17h10.08v2.44H516.15v6.49Z"/><path class="cls-14" d="M549.8,141.8v20.09h-2.35l-12.06-15v15h-2.87V141.8h2.35l12.06,15v-15Z"/><path class="cls-14" d="M559.82,144.3h-6.89v-2.5h16.62v2.5h-6.89v17.59h-2.84Z"/><path class="cls-14" d="M574.16,161.42a9.14,9.14,0,0,1-3.32-1.82l1.06-2.24a8.81,8.81,0,0,0,3,1.68,10.76,10.76,0,0,0,3.68.64,6.72,6.72,0,0,0,3.74-.84,2.63,2.63,0,0,0,1.23-2.26,2.21,2.21,0,0,0-.67-1.68,4.55,4.55,0,0,0-1.67-1c-.66-.23-1.59-.48-2.8-.77a30.82,30.82,0,0,1-3.66-1.09,6.16,6.16,0,0,1-2.38-1.68,4.5,4.5,0,0,1-1-3.06,5.14,5.14,0,0,1,.85-2.9,5.82,5.82,0,0,1,2.57-2.07,10.48,10.48,0,0,1,4.27-.77,13.42,13.42,0,0,1,3.51.46,9.29,9.29,0,0,1,3,1.32l-1,2.3A10.48,10.48,0,0,0,579,144a6.25,6.25,0,0,0-3.66.89,2.73,2.73,0,0,0-1.22,2.3,2.21,2.21,0,0,0,.69,1.68,4.8,4.8,0,0,0,1.71,1,26.9,26.9,0,0,0,2.77.76,28.33,28.33,0,0,1,3.65,1.09,6.21,6.21,0,0,1,2.36,1.67,4.37,4.37,0,0,1,1,3,5.11,5.11,0,0,1-.87,2.89,5.67,5.67,0,0,1-2.61,2.06,10.76,10.76,0,0,1-4.31.76A13.65,13.65,0,0,1,574.16,161.42Z"/><path class="cls-14" d="M612.93,162.21l-2.67-2.67a9.28,9.28,0,0,1-6.72,2.58,9.45,9.45,0,0,1-3.62-.66,5.8,5.8,0,0,1-2.51-1.85,4.37,4.37,0,0,1-.9-2.71,5.05,5.05,0,0,1,1.13-3.26,13,13,0,0,1,3.75-2.91,9.75,9.75,0,0,1-1.87-2.39,4.79,4.79,0,0,1-.55-2.21,4.07,4.07,0,0,1,1.48-3.27,6,6,0,0,1,3.95-1.23,5.53,5.53,0,0,1,3.65,1.12,3.8,3.8,0,0,1,1.35,3.07,4.17,4.17,0,0,1-1,2.73,12.09,12.09,0,0,1-3.28,2.52l5,4.94a12.67,12.67,0,0,0,1.24-3.65l2.21.72a13.43,13.43,0,0,1-1.75,4.59l2.7,2.7Zm-4.31-4.28-5.71-5.68a10.26,10.26,0,0,0-2.89,2.14,3.43,3.43,0,0,0-.82,2.22,2.75,2.75,0,0,0,1.25,2.33,5.51,5.51,0,0,0,3.26.89A6.68,6.68,0,0,0,608.62,157.93Zm-6.33-13.62a2.24,2.24,0,0,0-.76,1.77,3,3,0,0,0,.41,1.49,11.1,11.1,0,0,0,1.63,2,12.75,12.75,0,0,0,2.74-1.92,2.5,2.5,0,0,0,.76-1.75,2,2,0,0,0-.7-1.61,3,3,0,0,0-2-.6A3.07,3.07,0,0,0,602.29,144.31Z"/><path class="cls-14" d="M625.64,141.8h8.47a12.28,12.28,0,0,1,5.66,1.26,9.32,9.32,0,0,1,3.83,3.55,10.77,10.77,0,0,1,0,10.48,9.3,9.3,0,0,1-3.83,3.54,12.28,12.28,0,0,1-5.66,1.26h-8.47Zm8.3,17.6a9.29,9.29,0,0,0,4.29-1,6.82,6.82,0,0,0,2.86-2.66,8.28,8.28,0,0,0,0-7.89,6.88,6.88,0,0,0-2.86-2.66,9.29,9.29,0,0,0-4.29-.94h-5.43v15.1Z"/><path class="cls-14" d="M663.94,159.4v2.49H649.35V141.8h14.18v2.5H652.22v6.17H662.3v2.44H652.22v6.49Z"/><path class="cls-14" d="M672.13,160.79a9.88,9.88,0,0,1-3.8-3.68,10.73,10.73,0,0,1,0-10.53,9.8,9.8,0,0,1,3.82-3.68,11.13,11.13,0,0,1,5.45-1.33,11.33,11.33,0,0,1,4.31.79,8.8,8.8,0,0,1,3.33,2.34l-1.87,1.81a7.49,7.49,0,0,0-5.65-2.39,8.17,8.17,0,0,0-4.05,1,7.25,7.25,0,0,0-2.83,2.77,8.14,8.14,0,0,0,0,7.89,7.25,7.25,0,0,0,2.83,2.77,8.17,8.17,0,0,0,4.05,1,7.49,7.49,0,0,0,5.65-2.41l1.87,1.81a9,9,0,0,1-3.35,2.35,11.23,11.23,0,0,1-4.32.8A11.1,11.1,0,0,1,672.13,160.79Z"/><path class="cls-14" d="M691.21,160.79a9.85,9.85,0,0,1-3.83-3.69,10.56,10.56,0,0,1,0-10.51,9.85,9.85,0,0,1,3.83-3.69,11.91,11.91,0,0,1,10.94,0,9.87,9.87,0,0,1,3.82,3.68,10.8,10.8,0,0,1,0,10.53,9.87,9.87,0,0,1-3.82,3.68,11.91,11.91,0,0,1-10.94,0Zm9.46-2.23a7.32,7.32,0,0,0,2.78-2.77,8.14,8.14,0,0,0,0-7.89,7.32,7.32,0,0,0-2.78-2.77,7.9,7.9,0,0,0-4-1,8,8,0,0,0-4,1,7.29,7.29,0,0,0-2.82,2.77,8.21,8.21,0,0,0,0,7.89,7.29,7.29,0,0,0,2.82,2.77,8,8,0,0,0,4,1A7.9,7.9,0,0,0,700.67,158.56Z"/><path class="cls-14" d="M725.17,161.89l-4.34-6.17q-.8.06-1.26.06h-5v6.11h-2.88V141.8h7.84a9.32,9.32,0,0,1,6.14,1.86A6.32,6.32,0,0,1,728,148.8a6.8,6.8,0,0,1-1.14,4,6.53,6.53,0,0,1-3.28,2.38l4.77,6.74Zm-1.52-9.73a4.64,4.64,0,0,0,0-6.7,6.47,6.47,0,0,0-4.17-1.16h-4.87v9h4.87A6.42,6.42,0,0,0,723.65,152.16Z"/></svg>